<?xml version="1.0" encoding="UTF-8"?>
<!-- Generator: Adobe Illustrator 15.0.2, SVG Export Plug-In . SVG Version: 6.00 Build 0)  -->
<!DOCTYPE svg PUBLIC "-//W3C//DTD SVG 1.1//EN" "http://www.w3.org/Graphics/SVG/1.1/DTD/svg11.dtd">
<svg xmlns="http://www.w3.org/2000/svg" xmlns:xlink="http://www.w3.org/1999/xlink" version="1.1" id="Layer_1" x="0px" y="0px" width="512px" height="409.342px" viewBox="0 0 512 409.342" enable-background="new 0 0 512 409.342" xml:space="preserve">
<path d="M216.975,177.537c0,13.102-7.384,23.717-16.487,23.717c-9.103,0-16.479-10.615-16.479-23.717  c0-13.105,7.376-23.732,16.479-23.732C209.591,153.805,216.975,164.432,216.975,177.537z M349.615,177.537  c0,13.102-7.388,23.717-16.49,23.717c-9.096,0-16.476-10.615-16.476-23.717c0-13.105,7.38-23.732,16.476-23.732  C342.228,153.805,349.615,164.432,349.615,177.537z M270.952,208.699c0,3.417-2.77,6.181-6.188,6.181  c-3.413,0-6.18-2.764-6.18-6.181s2.767-6.18,6.18-6.18C268.183,202.52,270.952,205.282,270.952,208.699z M250.365,224.331  c-0.367-1.039,0.178-2.166,1.211-2.529c1.036-0.371,2.174,0.174,2.537,1.206c1.589,4.494,5.85,7.504,10.608,7.504  c4.755,0,9.008-3.01,10.601-7.504c0.363-1.039,1.498-1.577,2.537-1.206c1.04,0.363,1.578,1.49,1.215,2.529  c-2.152,6.079-7.926,10.158-14.353,10.158C258.283,234.489,252.518,230.41,250.365,224.331z M511.607,198.527  c-43.944-8.79-69.421-8.805-96.418-7.648c-0.981,3.265-2.072,6.435-3.337,9.488c26.64,0.778,54.138,11.924,99.275,24.662  l-0.538,1.912c-45.399-12.811-73.217-23.884-99.581-24.604c-13.319,30.21-42.214,49.645-102.416,55.613  c10.325,7.01,20.89,20.301,20.89,45.377v64.317c0,0,1.33,15.916,15.915,21.224c0,0,8.616,5.962-0.669,9.277  c0,0-40.439,3.315-40.439-29.839v-49.063c0,0,1.6-18.09-7.954-25.527v79.898c0,0,0.654,19.224,10.601,26.523  c0,0,6.631,11.932-7.954,8.623c0,0-27.848-3.984-29.171-36.47l-0.64-81.563h-6.689l-0.636,81.563  c-1.327,32.485-29.174,36.47-29.174,36.47c-14.589,3.309-7.958-8.623-7.958-8.623c9.95-7.3,10.608-26.523,10.608-26.523v-80.59  c-9.558,6.762-7.954,26.219-7.954,26.219v49.063c0,33.154-40.447,29.839-40.447,29.839c-9.289-3.315-0.666-9.277-0.666-9.277  c14.589-5.308,15.916-21.224,15.916-21.224v-44.999c-62.645,13.975-75.627-29.584-75.627-29.584  c-9.95-25.543-24.375-32.334-24.375-32.334c-20.063-13.763,1.49-13.436,1.49-13.436c22.22,1.665,33.827,22.888,33.827,22.888  c20.74,35.671,55.306,22.918,66.223,17.697c3.315-15.486,11.487-24.641,19.504-30.021c-56.458-6.086-88.191-25.47-104.289-55.469  c-26.68,0.814-73.078,15.952-117.51,28.479l-0.538-1.912c44.083-12.434,90.078-27.658,117.02-28.523  c-1.578-3.119-2.981-6.34-4.242-9.663c-27.244-1.032-70.8-4.668-113.264,3.824L0,192.646c42.21-8.441,85.497-4.894,112.907-3.897  c-5.729-16.057-8.073-34.528-8.073-55.119c0-27.276,9.858-49.521,26.007-66.949c-2.581-6.318-11.077-31.755,2.665-66.113  c0,0,21.049-6.664,68.734,25.87c20.002-5.486,41.45-8.191,62.67-8.191c19.297,0,38.557,2.232,56.654,6.758  C367.77-5.919,388.193,0.566,388.193,0.566c11.582,28.952,7.373,51.575,4.21,61.758c18.053,18.021,29.178,41.701,29.178,71.305  c0,20.642-1.338,39.149-5.803,55.235c27.179-1.134,52.452-1.047,96.222,7.707L511.607,198.527z M362.688,132.232  c-21.391-19.365-57.41-8.936-98.271-8.936c-41.015,0-77.172-10.324-98.533,9.176c-12.808,11.698-20.289,25.797-20.289,40.981  c0,63.42,53.196,73.301,118.822,73.301s118.833-1.935,118.833-73.301C383.249,158.168,375.658,143.982,362.688,132.232z" fill="#000000"/>
</svg>
